<?xml version="1.0" encoding="utf-8"?>
<!-- Generator: Adobe Illustrator 19.2.1, SVG Export Plug-In . SVG Version: 6.00 Build 0)  -->
<svg version="1.1" id="Layer_2" xmlns="http://www.w3.org/2000/svg" xmlns:xlink="http://www.w3.org/1999/xlink" x="0px" y="0px"
	 viewBox="0 0 80.3 80.3" style="enable-background:new 0 0 80.3 80.3;" xml:space="preserve">
<style type="text/css">
	.st0{fill:#EB6A5C;}
	.st1{fill:#552F2F;}
	.st2{fill:#55AB99;}
	.st3{fill:#2F4555;}
	.st4{fill:#FFFFFF;}
	.st5{fill:#ED6B5A;}
	.st6{fill:#0C2C48;}
	.st7{fill:#F1CC4B;}
	.st8{clip-path:url(#SVGID_2_);}
	.st9{clip-path:url(#SVGID_2_);fill:#F6A09C;}
	.st10{fill:#50646F;}
	.st11{fill:#FCA886;}
	.st12{fill:#EDAB7E;}
	.st13{fill:#332319;}
	.st14{fill:#E07E45;}
	.st15{fill:#FF8F8F;}
	.st16{fill:#A6D1D9;}
	.st17{fill:#628185;}
	.st18{fill:#BABABA;}
	.st19{fill:#698391;}
	.st20{opacity:0.41;fill:#FFFFFF;}
	.st21{fill:#F6A09C;}
	.st22{fill:#FFF3C9;}
	.st23{fill:#2384AB;}
	.st24{fill:#BABFC5;}
	.st25{clip-path:url(#SVGID_4_);}
	.st26{fill:#6EB9E0;}
	.st27{fill:#F8A06D;}
	.st28{fill:#A3B9C4;}
	.st29{fill:#3B4A52;}
	.st30{clip-path:url(#SVGID_6_);}
	.st31{clip-path:url(#SVGID_8_);fill:#F6A09C;}
	.st32{opacity:0.21;fill:#FFFFFF;}
	.st33{clip-path:url(#SVGID_10_);fill:#F6A09C;}
	.st34{clip-path:url(#SVGID_12_);}
	.st35{fill:#FFD3B5;}
	.st36{fill:#BFD9E6;}
	.st37{fill:#798287;}
	.st38{fill:#A4A8AD;}
	.st39{fill:#FFD6BA;}
	.st40{fill:none;stroke:#0C2C48;stroke-width:1.4;stroke-miterlimit:10;}
</style>
<g>
	<g>
		<g>
			<circle class="st21" cx="40.2" cy="40.2" r="40.2"/>
		</g>
	</g>
	<g>
		<g>
			<g>
				<rect x="13.7" y="16.6" class="st4" width="52.9" height="47.3"/>
			</g>
			<g>
				<rect x="14.2" y="16.4" class="st27" width="51.9" height="6.8"/>
			</g>
		</g>
		<g>
			<path class="st6" d="M67.2,23.8H13v-8.2h54.2V23.8z M14.5,22.3h51.2v-5.2H14.5V22.3z"/>
		</g>
		<g>
			<path class="st6" d="M27.7,59.7H16V25.8h11.7V59.7z M17.5,58.2h8.7V27.3h-8.7V58.2z"/>
		</g>
		<rect x="29.9" y="26" class="st6" width="34.3" height="8.3"/>
		<rect x="31.4" y="27.5" class="st28" width="31.3" height="5.3"/>
		<rect x="29.9" y="35.7" class="st6" width="9.2" height="21.7"/>
		<rect x="31.4" y="37.2" class="st2" width="6.2" height="18.7"/>
		<rect x="42.5" y="35.7" class="st6" width="9.2" height="21.7"/>
		<rect x="44" y="37.2" class="st5" width="6.2" height="18.7"/>
		<rect x="55.2" y="35.7" class="st6" width="9.2" height="21.7"/>
		<rect x="56.7" y="37.2" class="st28" width="6.2" height="18.7"/>
		<g>
			<g>
				<path class="st6" d="M16.6,19.8c0-0.4,0.3-0.8,0.7-0.8c0.4,0,0.7,0.3,0.7,0.8c0,0.4-0.3,0.8-0.7,0.8
					C16.9,20.5,16.6,20.2,16.6,19.8z"/>
			</g>
			<g>
				<path class="st6" d="M19,19.8c0-0.4,0.3-0.8,0.7-0.8c0.4,0,0.7,0.3,0.7,0.8c0,0.4-0.3,0.8-0.7,0.8C19.3,20.5,19,20.2,19,19.8z"
					/>
			</g>
			<g>
				<path class="st6" d="M21.5,19.8c0-0.4,0.3-0.8,0.7-0.8c0.4,0,0.7,0.3,0.7,0.8c0,0.4-0.3,0.8-0.7,0.8
					C21.8,20.5,21.5,20.2,21.5,19.8z"/>
			</g>
		</g>
		<g>
			<g>
				<path class="st6" d="M34.1,30c0-0.4,0.3-0.8,0.7-0.8c0.4,0,0.7,0.3,0.7,0.8c0,0.4-0.3,0.8-0.7,0.8C34.4,30.8,34.1,30.4,34.1,30z
					"/>
			</g>
			<g>
				<path class="st6" d="M36.6,30c0-0.4,0.3-0.8,0.7-0.8c0.4,0,0.7,0.3,0.7,0.8c0,0.4-0.3,0.8-0.7,0.8C36.8,30.8,36.6,30.4,36.6,30z
					"/>
			</g>
			<g>
				<path class="st6" d="M39,30c0-0.4,0.3-0.8,0.7-0.8s0.7,0.3,0.7,0.8c0,0.4-0.3,0.8-0.7,0.8C39.3,30.8,39,30.4,39,30z"/>
			</g>
		</g>
	</g>
</g>
</svg>
